<?xml version="1.0" standalone="no"?>
<!DOCTYPE svg PUBLIC "-//W3C//DTD SVG 20010904//EN"
 "http://www.w3.org/TR/2001/REC-SVG-20010904/DTD/svg10.dtd">
<svg version="1.0" xmlns="http://www.w3.org/2000/svg"
 width="200.000000pt" height="200.000000pt" viewBox="0 0 200.000000 200.000000"
 preserveAspectRatio="xMidYMid meet">
<metadata>
Created by potrace 1.11, written by Peter Selinger 2001-2013
</metadata>
<g transform="translate(0.000000,200.000000) scale(0.100000,-0.100000)"
fill="#000000" stroke="none">
<path d="M572 1720 c-221 -58 -401 -235 -457 -450 -24 -91 -16 -270 15 -359
32 -89 108 -198 195 -278 144 -133 258 -183 433 -191 131 -5 209 7 300 49 l64
29 24 -30 c14 -16 32 -29 42 -29 9 0 35 -4 57 -10 58 -15 192 -7 245 14 135
55 254 168 348 331 51 88 60 119 35 121 -10 1 -49 5 -88 9 -109 12 -266 9
-347 -8 -10 -2 -12 20 -10 107 6 212 -44 331 -208 496 -89 89 -118 112 -190
148 -146 71 -310 90 -458 51z m323 -26 c73 -19 108 -38 50 -27 -22 5 -94 8
-160 8 -96 0 -134 -4 -190 -22 -194 -62 -350 -216 -411 -407 -21 -66 -26 -100
-26 -186 1 -65 6 -124 16 -155 21 -67 14 -68 -12 0 -87 227 -30 470 151 641
158 150 368 203 582 148z m3 -120 c197 -40 315 -161 358 -364 17 -80 12 -166
-10 -184 -58 -49 -141 -182 -165 -263 -16 -56 -19 -58 -86 -95 -90 -48 -170
-68 -270 -68 -128 0 -263 55 -359 146 -43 41 -94 157 -107 246 -38 261 156
523 431 582 86 19 116 19 208 0z m412 -373 c11 -35 20 -84 20 -109 l0 -46 -20
22 c-14 15 -20 35 -20 69 0 43 -16 125 -34 178 -4 11 2 4 13 -15 11 -19 30
-64 41 -99z m-80 -366 c-7 -20 -14 -34 -17 -31 -3 2 1 20 8 40 17 46 25 38 9
-9z m447 -11 c-3 -3 -12 -4 -19 -1 -8 3 -5 6 6 6 11 1 17 -2 13 -5z m-85 -24
c-30 -10 -83 -35 -118 -55 -74 -40 -74 -40 -74 -20 0 8 10 20 23 26 35 19 180
68 202 68 11 0 -4 -8 -33 -19z m-524 -162 c-3 -28 -10 -36 -53 -57 -84 -40
-194 -57 -284 -44 -79 12 -173 42 -207 67 -12 9 3 7 41 -6 93 -33 245 -30 347
5 42 14 91 35 110 47 44 27 50 25 46 -12z m126 -82 c-3 -9 -10 -13 -16 -10 -5
3 -4 12 3 20 15 18 22 13 13 -10z"/>
<path d="M550 1090 l0 -210 135 0 135 0 0 40 0 40 -85 0 -85 0 0 170 0 170
-50 0 -50 0 0 -210z"/>
<path d="M880 1090 l0 -210 55 0 55 0 0 210 0 210 -55 0 -55 0 0 -210z"/>
</g>
</svg>
