<svg width="24" height="24" viewBox="0 0 24 24" xmlns="http://www.w3.org/2000/svg" xmlns:xlink="http://www.w3.org/1999/xlink"><title>ic-salary</title><defs><rect id="a" width="780" height="266" rx="3"/><mask id="b" x="0" y="0" width="780" height="266" fill="#fff"><use xlink:href="#a"/></mask></defs><g transform="translate(-20 -102)" fill="none" fill-rule="evenodd"><use stroke="#E2E8EF" mask="url(#b)" stroke-width="2" fill="#FFF" xlink:href="#a"/><path d="M24.691 108.837v-.4c0-.135.115-.243.257-.243h14.795c.142 0 .257.108.257.242v8.094a.25.25 0 0 1-.257.243h-.77" stroke="#9B9B9B" stroke-linecap="round" stroke-linejoin="round"/><path d="M37.277 118.9H24.541c-.199 0-.36-.173-.36-.387v-7.803c0-.215.161-.388.36-.388h12.736c.2 0 .361.173.361.388v7.803c0 .214-.162.388-.36.388z" stroke="#9B9B9B" stroke-linecap="round" stroke-linejoin="round"/><g fill="#9B9B9B"><path d="M29.073 113.057v.924h.856c.169 0 .296-.018.381-.056.15-.065.227-.194.227-.387 0-.209-.073-.35-.219-.42a.862.862 0 0 0-.368-.061h-.877zm1.643-.51c.14.055.258.135.356.241.08.088.144.184.19.29.048.106.071.226.071.362a.955.955 0 0 1-.137.482c-.09.158-.242.27-.452.335.177.064.3.154.374.272.073.118.11.297.11.538v.232c0 .157.006.263.02.32.021.088.07.153.147.195v.087h-.877a1.474 1.474 0 0 1-.085-.481l-.006-.32c-.003-.22-.045-.366-.125-.44-.08-.072-.231-.109-.453-.109h-.776v1.35h-.777v-3.442h1.819c.26.005.46.034.6.089zM33.836 114.108c-.1-.151-.263-.227-.486-.227-.27 0-.455.114-.556.344a1.172 1.172 0 0 0-.079.462c0 .296.088.504.264.623.105.07.227.105.37.105.208 0 .365-.071.473-.215.11-.143.164-.334.164-.572a.92.92 0 0 0-.15-.52m.564-.479c.229.22.344.542.344.967 0 .448-.112.79-.337 1.025-.223.235-.512.353-.865.353a.982.982 0 0 1-.562-.152 1.06 1.06 0 0 1-.238-.245v1.326h-.728v-3.547h.705v.376c.08-.11.163-.198.255-.262a1 1 0 0 1 .586-.17c.33 0 .61.11.84.33"/></g></g></svg>